<svg width="25" height="25" viewBox="0 0 25 25" fill="none" xmlns="http://www.w3.org/2000/svg">
<rect x="1" y="1" width="23" height="23" rx="1.5" fill="#2F608D" stroke="#2F608D" stroke-width="2"/>
<path d="M9.55354 16.8354L5.93895 13.2209C5.74419 13.0261 5.48002 12.9167 5.20458 12.9167C4.92913 12.9167 4.66497 13.0261 4.4702 13.2209C4.27544 13.4156 4.16602 13.6798 4.16602 13.9552C4.16602 14.0916 4.19288 14.2267 4.24507 14.3527C4.29726 14.4787 4.37376 14.5932 4.4702 14.6896L8.82437 19.0438C9.23062 19.45 9.88687 19.45 10.2931 19.0438L21.314 8.02294C21.5087 7.82817 21.6181 7.56401 21.6181 7.28856C21.6181 7.01312 21.5087 6.74896 21.314 6.55419C21.1192 6.35942 20.855 6.25 20.5796 6.25C20.3041 6.25 20.04 6.35942 19.8452 6.55419L9.55354 16.8354Z" fill="white"/>
</svg>
