<svg width="17" height="11" viewBox="0 0 17 11" fill="none" xmlns="http://www.w3.org/2000/svg">
<path d="M16.1368 9.76553C15.9042 10.0141 15.5887 10.1538 15.2598 10.1538C14.9309 10.1538 14.6154 10.0141 14.3828 9.76553L8.24251 3.20103L2.10223 9.76553C1.86827 10.0071 1.55493 10.1408 1.22968 10.1377C0.904438 10.1347 0.593314 9.99525 0.363323 9.74937C0.133331 9.50349 0.00287446 9.17087 4.78e-05 8.82316C-0.00277886 8.47544 0.122254 8.14045 0.348213 7.89033L7.36551 0.388245C7.59813 0.139628 7.91359 -3.79439e-05 8.24251 -3.79152e-05C8.57144 -3.78864e-05 8.8869 0.139628 9.11952 0.388245L16.1368 7.89034C16.3694 8.13903 16.5 8.47628 16.5 8.82793C16.5 9.17958 16.3694 9.51683 16.1368 9.76553Z" fill="#B5CCAD"/>
</svg>
