<svg width="17" height="11" viewBox="0 0 17 11" fill="none" xmlns="http://www.w3.org/2000/svg">
<path d="M0.36319 0.388282C0.595811 0.139665 0.911271 0 1.2402 0C1.56912 0 1.88458 0.139665 2.1172 0.388282L8.25749 6.95278L14.3978 0.388282C14.6317 0.146711 14.9451 0.0130411 15.2703 0.0160626C15.5956 0.0190842 15.9067 0.158555 16.1367 0.404436C16.3667 0.650317 16.4971 0.982935 16.5 1.33065C16.5028 1.67836 16.3777 2.01336 16.1518 2.26347L9.13449 9.76556C8.90187 10.0142 8.58641 10.1538 8.25749 10.1538C7.92856 10.1538 7.6131 10.0142 7.38048 9.76556L0.36319 2.26347C0.13064 2.01478 0 1.67753 0 1.32588C0 0.974227 0.13064 0.636974 0.36319 0.388282Z" fill="#B5CCAD"/>
</svg>
