<svg width="8" height="13" viewBox="0 0 8 13" fill="none" xmlns="http://www.w3.org/2000/svg">
<path d="M0.305919 12.7138C0.110039 12.5306 8.56172e-09 12.282 1.16521e-08 12.0229C1.47425e-08 11.7637 0.110039 11.5152 0.305919 11.3319L5.47795 6.4941L0.305919 1.6563C0.115591 1.47197 0.0102749 1.22509 0.0126556 0.968841C0.0150362 0.712587 0.124923 0.46746 0.318647 0.286254C0.512371 0.105048 0.774434 0.00226403 1.04839 3.72058e-05C1.32235 -0.00218962 1.58628 0.0963202 1.78334 0.274349L7.69408 5.80312C7.88996 5.9864 8 6.23495 8 6.4941C8 6.75325 7.88996 7.0018 7.69408 7.18507L1.78334 12.7138C1.5874 12.8971 1.32169 13 1.04463 13C0.767573 13 0.501858 12.8971 0.305919 12.7138Z" fill="#2F608D"/>
</svg>
