<svg width="36" height="24" viewBox="0 0 36 24" fill="none" xmlns="http://www.w3.org/2000/svg">
<path d="M35.9209 11.6262C35.869 11.5062 34.5999 8.66769 31.7656 5.80923C29.1357 3.16 24.6174 0 18 0C11.3826 0 6.86427 3.16 4.23441 5.80923C1.40013 8.66769 0.130965 11.5015 0.0791004 11.6262C0.0269491 11.7443 0 11.8722 0 12.0015C0 12.1309 0.0269491 12.2588 0.0791004 12.3769C0.130965 12.4954 1.40013 15.3338 4.23441 18.1923C6.86427 20.8415 11.3826 24 18 24C24.6174 24 29.1357 20.8415 31.7656 18.1923C34.5999 15.3338 35.869 12.5 35.9209 12.3769C35.973 12.2588 36 12.1309 36 12.0015C36 11.8722 35.973 11.7443 35.9209 11.6262ZM18 22.1538C13.2132 22.1538 9.03345 20.3969 5.57527 16.9338C4.12561 15.4808 2.89888 13.8179 1.93556 12C2.8986 10.1823 4.12537 8.51991 5.57527 7.06769C9.03345 3.60308 13.2132 1.84615 18 1.84615C22.7868 1.84615 26.9666 3.60308 30.4247 7.06769C31.8746 8.51991 33.1014 10.1823 34.0644 12C33.0927 13.8785 28.2205 22.1538 18 22.1538ZM18 4.92308C16.6122 4.92308 15.2555 5.33813 14.1015 6.11575C12.9476 6.89338 12.0482 7.99864 11.5171 9.29178C10.986 10.5849 10.847 12.0079 11.1178 13.3806C11.3885 14.7534 12.0569 16.0144 13.0382 17.0041C14.0196 17.9939 15.2699 18.6679 16.631 18.9409C17.9922 19.214 19.4031 19.0739 20.6853 18.5382C21.9675 18.0026 23.0634 17.0955 23.8345 15.9317C24.6055 14.7679 25.017 13.3997 25.017 12C25.0146 10.1238 24.2745 8.32521 22.9591 6.99856C21.6437 5.67191 19.8603 4.92552 18 4.92308ZM18 17.2308C16.9742 17.2308 15.9714 16.924 15.1185 16.3492C14.2656 15.7745 13.6008 14.9575 13.2083 14.0017C12.8157 13.0459 12.713 11.9942 12.9132 10.9795C13.1133 9.96486 13.6072 9.03282 14.3326 8.30129C15.0579 7.56975 15.9821 7.07157 16.9882 6.86974C17.9942 6.66791 19.0371 6.7715 19.9848 7.1674C20.9325 7.5633 21.7425 8.23374 22.3124 9.09394C22.8823 9.95414 23.1865 10.9655 23.1865 12C23.1865 13.3873 22.6401 14.7178 21.6674 15.6987C20.6948 16.6797 19.3755 17.2308 18 17.2308Z" fill="#2F608D"/>
</svg>
