<svg width="42" height="51" viewBox="0 0 42 51" fill="none" xmlns="http://www.w3.org/2000/svg">
<path fill-rule="evenodd" clip-rule="evenodd" d="M27.5141 1.46441L39.709 13.6594C40.6685 14.6188 41.1987 15.9065 41.1987 17.2447V45.4471C41.1987 48.2244 38.9263 50.4968 36.149 50.4968H5.8257C3.04838 50.4968 0.80127 48.2244 0.80127 45.4471L0.826519 5.04968C0.826519 2.27236 3.07363 0 5.85095 0H23.9541C25.2922 0 26.5799 0.530216 27.5141 1.46441ZM23.5248 15.149C23.5248 16.5377 24.661 17.6739 26.0497 17.6739H37.4114L23.5248 3.78726V15.149ZM14.6836 34.0859H19.2283L19.2283 26.5114C19.2283 25.1228 20.3645 23.9866 21.7532 23.9866C23.1418 23.9866 24.278 25.1228 24.278 26.5114V34.0859H28.7975C29.9337 34.0859 30.4891 35.4494 29.6812 36.2321L22.6116 43.2764C22.1067 43.7561 21.324 43.7561 20.819 43.2764L13.7747 36.2321C13.0172 35.4494 13.5727 34.0859 14.6836 34.0859Z" fill="#2F608D"/>
</svg>
